<svg width="80" height="51" viewBox="0 0 80 51" fill="none" xmlns="http://www.w3.org/2000/svg">
<path d="M69.7656 18.3751H68.5047C69.5338 17.0337 70.1473 15.3576 70.1473 13.5403V11.3351C70.1473 6.9459 66.5766 3.37511 62.1875 3.37511C57.7984 3.37511 54.2277 6.94589 54.2277 11.335V13.0492L42.4728 1.29418C41.8205 0.64199 40.8611 0.432615 40.0002 0.743552C39.1395 0.432615 38.1798 0.641989 37.5273 1.29433L25.7727 13.0492V11.335C25.7723 6.94589 22.2016 3.37511 17.8125 3.37511C13.4234 3.37511 9.85266 6.94589 9.85266 11.335V13.5401C9.85266 15.3576 10.4663 17.0336 11.4953 18.375H10.2344C4.59109 18.3751 0 22.9662 0 28.6095V49.3126C0 50.1756 0.699688 50.8751 1.5625 50.8751H8.16406C8.32031 50.8751 8.47094 50.8515 8.61328 50.8089C8.75562 50.8515 8.90625 50.8751 9.0625 50.8751H26.5625C27.4253 50.8751 28.125 50.1756 28.125 49.3126V44.0001C28.125 43.1371 27.4253 42.4376 26.5625 42.4376C25.6997 42.4376 25 43.1371 25 44.0001V47.7501H10.625V29.9459C10.625 29.0829 9.92531 28.3834 9.0625 28.3834C8.19969 28.3834 7.5 29.0829 7.5 29.9459V47.7501H3.125V28.6095C3.125 24.6893 6.31422 21.5001 10.2344 21.5001H21.0938C21.5238 21.5001 21.9131 21.3262 22.1956 21.0453C22.1967 21.0442 22.1977 21.0436 22.1988 21.0426L38.4283 4.81293C38.3219 8.05793 37.3125 11.1834 35.4928 13.8861L25.2666 29.0732C25.093 29.3312 25.0002 29.6351 25.0002 29.9459V31.6564C25.0002 32.5193 25.6998 33.2189 26.5627 33.2189C27.4255 33.2189 28.1252 32.5193 28.1252 31.6564V30.4228L38.085 15.6312C38.8459 14.5011 39.4841 13.307 40.0002 12.0675C40.5163 13.307 41.1542 14.5011 41.9153 15.6312L51.875 30.4228V49.3126C51.875 50.1756 52.5747 50.8751 53.4375 50.8751H70.9375C71.0938 50.8751 71.2444 50.8515 71.3867 50.8089C71.5291 50.8515 71.6797 50.8751 71.8359 50.8751H78.4375C79.3003 50.8751 80 50.1756 80 49.3126V28.6095C80 22.9662 75.4089 18.3751 69.7656 18.3751ZM22.6473 13.5401C22.6473 16.2062 20.4786 18.3751 17.8125 18.3751C15.1464 18.3751 12.9777 16.2062 12.9777 13.5403V11.3351C12.9777 8.66902 15.1466 6.50011 17.8125 6.50011C20.4784 6.50011 22.6473 8.66902 22.6473 11.335V13.5401ZM57.3527 11.335C57.3527 8.66902 59.5216 6.50011 62.1875 6.50011C64.8534 6.50011 67.0223 8.66902 67.0223 11.335V13.5401C67.0223 16.2062 64.8536 18.3751 62.1875 18.3751C59.5214 18.3751 57.3527 16.2062 57.3527 13.5403V11.335ZM76.875 47.7501H72.5V36.1876C72.5 35.3246 71.8003 34.6251 70.9375 34.6251C70.0747 34.6251 69.375 35.3246 69.375 36.1876V47.7501H55V29.9459C55 29.635 54.9072 29.3311 54.7336 29.0732L44.5073 13.8862C42.6877 11.1836 41.6783 8.05808 41.5719 4.81308L57.8014 21.0426C57.822 21.0632 57.8414 21.0806 57.8602 21.0961C58.1372 21.3465 58.5034 21.5004 58.9062 21.5004H69.7656C73.6858 21.5004 76.875 24.6896 76.875 28.6098V47.7501Z" fill="white"/>
</svg>
